# xmcd
#
# Track frame offsets: 
#        150
#        22000
#        35645
#        55785
#        74765
#        95750
#        118510
#        135017
#        152632
#        172300
#        190900
#        210110
#        230377
#        248337
#        268657
#        288015
#        306140
#        320702
#
# Disc length: 4548 seconds
#
# Revision: 27
# Processed by: cddbd v1.5.2PL0 Copyright (c) Steve Scherf et al.
# Submitted via: ExactAudioCopy v0.99pb5
#
DISCID=fa11c212
DTITLE=Sting and The Police - The Very Best Of Sting and The Police
DYEAR=1997
DGENRE=Rock
TTITLE0=Message In A Bottle
TTITLE1=Can't Stand Losing You
TTITLE2=Englishman In New York
TTITLE3=Every Breath You Take
TTITLE4=Seven Days
TTITLE5=Walking On The Moon
TTITLE6=Fields Of Gold
TTITLE7=Fragile
TTITLE8=Every Little Thing She Does Is Magic
TTITLE9=De Do Do Do, De Da Da Da
TTITLE10=If You Love Somebody Set Them Free
TTITLE11=Let Your Soul Be Your Pilot (Edit)
TTITLE12=Russians
TTITLE13=If I Ever Lose My Faith In You
TTITLE14=When We Dance (Edit)
TTITLE15=Don't Stand So Close To Me
TTITLE16=Roxanne
TTITLE17=Roxanne '97 (Puff Daddy Remix)
EXTD=Polygram - Am Records YEAR: 1997
EXTT0=
EXTT1=
EXTT2=
EXTT3=
EXTT4=
EXTT5=
EXTT6=
EXTT7=
EXTT8=
EXTT9=
EXTT10=
EXTT11=
EXTT12=
EXTT13=
EXTT14=
EXTT15=
EXTT16=
EXTT17=
PLAYORDER=
